# AST/ASF file generated using VICON BodyLanguage
# -----------------------------------------------
:version 1.10
:name VICON
:units
  mass 1.0
  length 0.45
  angle deg
:documentation
   .ast/.asf automatically generated from VICON data using
   VICON BodyBuilder and BodyLanguage model FoxedUp or BRILLIANT.MOD
:root
   order TX TY TZ RX RY RZ
   axis XYZ
   position 0 0 0  
   orientation 0 0 0 
:bonedata
  begin
     id 1 
     name lhipjoint
     direction 0.567725 -0.736092 0.368589 
     length 2.42353 
     axis 0 0 0  XYZ
  end
  begin
     id 2 
     name lfemur
     direction 0.34202 -0.939693 0  
     length 7.24894  
     axis 0 0 20  XYZ
    dof rx ry rz
    limits (-160.0 20.0)
           (-70.0 70.0)
           (-60.0 70.0)
  end
  begin
     id 3 
     name ltibia
     direction 0.34202 -0.939693 0   
     length 7.6997   
     axis 0 0 20   XYZ
    dof rx
    limits (-10.0 170.0)
  end
  begin
     id 4 
     name lfoot
     direction 0.100767 -0.276854 0.955614   
     length 2.37556   
     axis -90 7.62852e-016 20   XYZ
    dof rx rz
    limits (-45.0 90.0)
           (-70.0 20.0)
  end
  begin
     id 5 
     name ltoes
     direction 1.53592e-011 -4.21894e-011 1   
     length 1.18363   
     axis -90 7.62852e-016 20   XYZ
    dof rx
    limits (-90.0 20.0)
  end
  begin
     id 6 
     name rhipjoint
     direction -0.556459 -0.742938 0.372017   
     length 2.4012  
     axis 0 0 0  XYZ 
  end
  begin
     id 7 
     name rfemur
     direction -0.34202 -0.939693 0   
     length 7.5119   
     axis 0 0 -20   XYZ
    dof rx ry rz
    limits (-160.0 20.0)
           (-70.0 70.0)
           (-70.0 60.0)
  end
  begin
     id 8 
     name rtibia
     direction -0.34202 -0.939693 0   
     length 7.50155   
     axis 0 0 -20   XYZ
    dof rx
    limits (-10.0 170.0)
 end
 begin
     id 9 
     name rfoot
     direction -0.118427 -0.325376 0.938139   
     length 2.32487  
     axis -90 -7.62852e-016 -20   XYZ
    dof rx rz
    limits (-45.0 90.0)
           (-20.0 70.0)
  end
  begin
     id 10 
     name rtoes
     direction -1.53525e-011 -4.21868e-011 1   
     length 1.15233   
     axis -90 -7.62852e-016 -20   XYZ
    dof rx
    limits (-90.0 20.0)
  end
  begin
     id 11 
     name lowerback
     direction 0.0287568 0.999577 -0.00434502   
     length 2.15243   
     axis 0 0 0   XYZ
    dof rx ry rz
    limits (-20.0 45.0)
           (-30.0 30.0)
           (-30.0 30.0)
  end
  begin
     id 12 
     name upperback
     direction 0.0294009 0.99956 0.00404628   
     length 2.15427   
     axis 0 0 0   XYZ
    dof rx ry rz
    limits (-20.0 45.0)
           (-30.0 30.0)
           (-30.0 30.0)
  end
  begin
     id 13 
     name thorax
     direction 0.0151014 0.999868 0.0059419   
     length 2.14898   
     axis 0 0 0   XYZ
    dof rx ry rz
    limits (-20.0 45.0)
           (-30.0 30.0)
           (-30.0 30.0)
  end
  begin
     id 14 
     name lowerneck
     direction -0.0249197 0.989906 0.139515   
     length 1.6861   
     axis 0 0 0   XYZ
    dof rx ry rz
    limits (-20.0 45.0)
           (-30.0 30.0)
           (-30.0 30.0)
  end
  begin
     id 15 
     name upperneck
     direction 0.0438463 0.988795 -0.142693   
     length 1.71276   
     axis 0 0 0   XYZ
    dof rx ry rz
    limits (-20.0 45.0)
           (-30.0 30.0)
           (-30.0 30.0)
  end
  begin
     id 16
     name head
     direction 0.0148499 0.997845 -0.0639186  
     length 1.7209  
     axis 0 0 0   XYZ
    dof rx ry rz
    limits (-20.0 45.0)
           (-30.0 30.0)
           (-30.0 30.0)
  end
  begin
     id 17 
     name lclavicle
     direction 0.940298 0.323464 -0.105876  
     length 3.9048  
     axis 0 0 0   XYZ
    dof ry rz
    limits (-20.0 10.0)
           (0.0 20.0)
  end
  begin
     id 18 
     name lhumerus
     direction 1 -4.48954e-011 -4.9675e-028   
     length 4.6851   
     axis 180 -30 -90   XYZ
    dof rx ry rz
    limits (-60.0 90.0)
           (-90.0 90.0)
           (-90.0 90.0)
  end
  begin
     id 19
     name lradius
     direction 1 -4.48992e-011 -1.03359e-026   
     length 3.39626   
     axis 180 -30 -90   XYZ
    dof rx
    limits (-10.0 170.0)
  end
  begin
     id 20
     name lwrist
     direction 1 -4.48906e-011 -1.67336e-026   
     length 1.69813   
     axis 9.90442e-015 90 90   XYZ
    dof ry
    limits (-180.0 0.0)
 end
  begin
     id 21 
     name lhand
     direction 1 -4.49006e-011 -3.34673e-026   
     length 0.486078   
     axis 2.1355e-014 90 90   XYZ
    dof rx rz
    limits (-90.0 90.0)
           (-45.0 45.0)
  end
  begin
     id 22 
     name lfingers
     direction 1 -4.48992e-011 -6.69345e-026   
     length 0.391889   
     axis 4.27099e-014 90 90   XYZ
    dof rx
    limits (0.0 90.0)
  end
  begin
     id 23
     name lthumb
     direction 0.707107 -6.34926e-011 0.707107   
     length 0.562676   
     axis -90 45 2.85299e-015   XYZ
    dof rx rz
    limits (-45.0 45.0)
           (-45.0 45.0)
  end
  begin
     id 24 
     name rclavicle
     direction -0.882459 0.414895 -0.221648   
     length 3.44646  
     axis 0 0 0   XYZ 
    dof ry rz
    limits (-10.0 20.0)
           (-20.0 0.0)
  end
  begin
     id 25 
     name rhumerus
     direction -1 -4.48962e-011 -2.37984e-027  
     length 5.55576   
     axis 180 30 90   XYZ
    dof rx ry rz
    limits (-90.0 60.0)
           (-90.0 90.0)
           (-90.0 90.0)
  end
  begin
     id 26 
     name rradius
     direction -1 -4.48982e-011 -6.86791e-027   
     length 3.32774   
     axis 180 30 90   XYZ
    dof rx
    limits (-10.0 170.0)
  end
  begin
     id 27 
     name rwrist
     direction -1 -4.48961e-011 -1.67336e-026   
     length 1.66387   
     axis 9.90442e-015 -90 -90   XYZ
    dof ry
    limits (-180.0 0.0)
  end
  begin
     id 28
     name rhand
     direction -1 -4.4897e-011 -3.34673e-026   
     length 0.507628   
     axis 2.1355e-014 -90 -90   XYZ
    dof rx rz
    limits (-90.0 90.0)
           (-45.0 45.0)
  end
  begin
     id 29
     name rfingers
     direction -1 -4.48854e-011 -6.69345e-026   
     length 0.409263   
     axis 4.27099e-014 -90 -90   XYZ
    dof rx
    limits (0.0 90.0)
  end
  begin
     id 30
     name rthumb
     direction -0.707107 -6.34913e-011 0.707107   
     length 0.587622   
     axis -90 -45 -2.85299e-015   XYZ
    dof rx rz
    limits (-45.0 45.0)
           (-45.0 45.0)
  end
:hierarchy
  begin
    root lhipjoint rhipjoint lowerback
    lhipjoint lfemur
    lfemur ltibia
    ltibia lfoot
    lfoot ltoes
    rhipjoint rfemur
    rfemur rtibia
    rtibia rfoot
    rfoot rtoes
    lowerback upperback
    upperback thorax
    thorax lowerneck lclavicle rclavicle
    lowerneck upperneck
    upperneck head
    lclavicle lhumerus
    lhumerus lradius
    lradius lwrist
    lwrist lhand lthumb
    lhand lfingers
    rclavicle rhumerus
    rhumerus rradius
    rradius rwrist
    rwrist rhand rthumb
    rhand rfingers
  end

#!OML:ASF E:\motion texture\Top Level 1\Subject 1\Session 1\male.ASF
:FULLY-SPECIFIED
:DEGREES
103
root 36.1853 17.0447 1.68182 129.723 -80.8573 -117.835
lowerback -2.30126 -0.0568626 5.80403
upperback -2.05975 -0.203363 1.1004
thorax -0.8457 -0.182142 -2.12267
lowerneck -14.6178 -8.16393 -10.7609
upperneck 3.12896 -9.81042 10.2153
head 4.32859 -4.52229 4.04222
rclavicle 7.8023e-015 2.50469e-014
rhumerus -21.7855 16.5038 -90.1481
rradius 52.9551
rwrist 7.81727
rhand -14.2672 -24.8832
rfingers 7.12502
rthumb 11.8714 -54.5266
lclavicle 7.8023e-015 2.50469e-014
lhumerus -26.5397 -7.75281 91.1366
lradius 51.8266
lwrist -7.07043
lhand -20.2198 28.2517
lfingers 7.12502
lthumb 6.12761 58.143
rfemur 0.429338 4.81785 30.419
rtibia 22.4497
rfoot -19.4655 -9.3751
rtoes -8.05736
lfemur -42.6707 0.0109616 -2.5857
ltibia 24.4933
lfoot -3.10814 5.99172
ltoes -7.74865
104
root 36.0418 17.0379 1.7054 130.43 -80.9575 -118.577
lowerback -2.21617 -0.0573972 5.66045
upperback -2.09859 -0.193125 1.02415
thorax -0.932 -0.178157 -2.12039
lowerneck -14.5039 -8.15186 -10.7727
upperneck 2.93281 -9.79949 10.285
head 4.25414 -4.51954 4.07289
rclavicle -2.38542e-015 -9.93923e-015
rhumerus -21.1351 17.0204 -90.0443
rradius 53.9754
rwrist 8.00191
rhand -14.5217 -24.8325
rfingers 7.12502
rthumb 11.626 -54.49
lclavicle -2.38542e-015 -9.93923e-015
lhumerus -25.5887 -8.78361 91.4603
lradius 52.4266
lwrist -6.83082
lhand -20.2101 28.481
lfingers 7.12502
lthumb 6.13695 58.3721
rfemur 0.327848 4.75247 30.082
rtibia 23.4089
rfoot -19.0051 -9.20553
rtoes -8.39712
lfemur -42.6428 -0.0621729 -2.87091
ltibia 24.918
lfoot -3.02149 5.61623
ltoes -7.37
105
root 35.8965 17.0327 1.72979 131.161 -81.0668 -119.358
lowerback -2.13057 -0.0596656 5.50865
upperback -2.13358 -0.185655 0.946797
thorax -1.0148 -0.175165 -2.11468
lowerneck -14.3832 -8.13865 -10.7864
upperneck 2.73525 -9.78701 10.3539
head 4.17815 -4.51637 4.10396
rclavicle -9.74045e-015 -4.77083e-015
rhumerus -20.4529 17.5289 -89.9147
rradius 55.0109
rwrist 8.18596
rhand -14.7841 -24.7778
rfingers 7.12502
rthumb 11.373 -54.4494
lclavicle -9.74045e-015 -4.77083e-015
lhumerus -24.6051 -9.83008 91.7615
lradius 53.0318
lwrist -6.56132
lhand -20.1816 28.7083
lfingers 7.12502
lthumb 6.16447 58.5986
rfemur 0.178237 4.67723 29.7253
rtibia 24.4541
rfoot -18.4831 -9.03882
rtoes -8.71434
lfemur -42.5866 -0.12303 -3.19987
ltibia 25.3796
lfoot -2.95508 5.22229
ltoes -6.96805
106
root 35.7492 17.0292 1.75479 131.881 -81.1891 -120.144
lowerback -2.04135 -0.0662008 5.34705
upperback -2.16513 -0.184106 0.869238
thorax -1.09648 -0.174779 -2.10374
lowerneck -14.2544 -8.12407 -10.802
upperneck 2.53706 -9.77275 10.421
head 4.1006 -4.51272 4.13526
rclavicle -3.13086e-015 7.95139e-016
rhumerus -19.7416 18.0293 -89.7597
rradius 56.0588
rwrist 8.36674
rhand -15.0572 -24.7295
rfingers 7.12502
rthumb 11.1096 -54.4154
lclavicle -3.13086e-015 7.95139e-016
lhumerus -23.5923 -10.8895 92.038
lradius 53.6414
lwrist -6.26245
lhand -20.1414 28.9441
lfingers 7.12502
lthumb 6.20331 58.8333
rfemur -0.0144271 4.58896 29.3513
rtibia 25.5813
rfoot -17.8989 -8.88294
rtoes -8.99487
lfemur -42.4946 -0.181369 -3.569
ltibia 25.8674
lfoot -2.91142 4.81287
ltoes -6.54889
107
root 35.6003 17.0271 1.78051 132.631 -81.319 -120.971
lowerback -1.94693 -0.074594 5.17882
upperback -2.19651 -0.185198 0.791002
thorax -1.18105 -0.175581 -2.08978
lowerneck -14.1187 -8.10795 -10.8201
upperneck 2.34048 -9.75649 10.4872
head 4.02239 -4.50836 4.16704
rclavicle -7.15625e-015 2.3059e-014
rhumerus -19.0018 18.5208 -89.5798
rradius 57.1156
rwrist 8.54282
rhand -15.337 -24.6817
rfingers 7.12502
rthumb 10.8397 -54.382
lclavicle -7.15625e-015 2.3059e-014
lhumerus -22.5526 -11.9591 92.2872
lradius 54.254
lwrist -5.93496
lhand -20.0849 29.1878
lfingers 7.12502
lthumb 6.25786 59.0753
rfemur -0.260966 4.49029 28.96
rtibia 26.7933
rfoot -17.2493 -8.73874
rtoes -9.22665
lfemur -42.3689 -0.235067 -3.97208
ltibia 26.3751
lfoot -2.89201 4.3972
ltoes -6.11053
108
root 35.4497 17.0268 1.80669 133.368 -81.4619 -121.801
lowerback -1.85141 -0.0876825 5.00214
upperback -2.22238 -0.193114 0.712405
thorax -1.26101 -0.17932 -2.07148
lowerneck -13.9828 -8.09093 -10.8384
upperneck 2.14588 -9.73874 10.5507
head 3.94453 -4.50343 4.19817
rclavicle 1.09332e-014 -3.26007e-014
rhumerus -18.2266 19.0038 -89.3732
rradius 58.1783
rwrist 8.71371
rhand -15.6267 -24.6409
rfingers 7.12502
rthumb 10.5602 -54.3556
lclavicle 1.09332e-014 -3.26007e-014
lhumerus -21.4793 -13.0364 92.5041
lradius 54.8679
lwrist -5.5786
lhand -20.0123 29.4352
lfingers 7.12502
lthumb 6.3279 59.3207
rfemur -0.555547 4.37785 28.5544
rtibia 28.0819
rfoot -16.5343 -8.61499
rtoes -9.39228
lfemur -42.2042 -0.292218 -4.4075
ltibia 26.8933
lfoot -2.89583 3.97467
ltoes -5.65902
109
root 35.2978 17.028 1.83338 134.136 -81.6129 -122.675
lowerback -1.75618 -0.103436 4.81822
upperback -2.24481 -0.205247 0.633387
thorax -1.33747 -0.184799 -2.04953
lowerneck -13.8399 -8.07165 -10.8585
upperneck 1.9503 -9.71802 10.6125
head 3.86502 -4.49738 4.22958
rclavicle -5.46658e-016 1.82882e-014
rhumerus -17.4186 19.4796 -89.1406
rradius 59.2451
rwrist 8.87842
rhand -15.9247 -24.6075
rfingers 7.12502
rthumb 10.2728 -54.3366
lclavicle -5.46658e-016 1.82882e-014
lhumerus -20.3738 -14.1175 92.6859
lradius 55.4819
lwrist -5.19149
lhand -19.9254 29.6901
lfingers 7.12502
lthumb 6.4118 59.5731
rfemur -0.907218 4.25649 28.1342
rtibia 29.4489
rfoot -15.7535 -8.50974
rtoes -9.47212
lfemur -42.0015 -0.351077 -4.86955
ltibia 27.4148
lfoot -2.92315 3.55441
ltoes -5.1932
110
root 35.1445 17.031 1.8605 134.9 -81.772 -123.557
lowerback -1.65543 -0.123079 4.63159
upperback -2.26551 -0.222906 0.554431
thorax -1.41559 -0.192892 -2.02592
lowerneck -13.7001 -8.05114 -10.8793
upperneck 1.76256 -9.69526 10.6711
head 3.78811 -4.49031 4.26017
rclavicle 8.44835e-016 4.77083e-015
rhumerus -16.5766 19.9452 -88.8829
rradius 60.3095
rwrist 9.03841
rhand -16.2308 -24.5814
rfingers 7.12502
rthumb 9.97748 -54.3249
lclavicle 8.44835e-016 4.77083e-015
lhumerus -19.2384 -15.1996 92.8295
lradius 56.0938
lwrist -4.7726
lhand -19.822 29.9403
lfingers 7.12502
lthumb 6.51167 59.8202
rfemur -1.31223 4.12217 27.7045
rtibia 30.8874
rfoot -14.9162 -8.42761
rtoes -9.47613
lfemur -41.7565 -0.416182 -5.35219
ltibia 27.9306
lfoot -2.97513 3.13842
ltoes -4.72024
111
root 34.9901 17.0355 1.88792 135.654 -81.9397 -124.441
lowerback -1.55333 -0.147614 4.44151
upperback -2.28545 -0.247711 0.476667
thorax -1.49409 -0.204392 -1.99907
lowerneck -13.5496 -8.02723 -10.9027
upperneck 1.57508 -9.66824 10.7277
head 3.70919 -4.48154 4.29124
rclavicle -4.47266e-015 -1.19271e-014
rhumerus -15.7072 20.404 -88.6004
rradius 61.3723
rwrist 9.19233
rhand -16.5432 -24.5589
rfingers 7.12502
rthumb 9.6761 -54.3167
lclavicle -4.47266e-015 -1.19271e-014
lhumerus -18.0753 -16.2769 92.9337
lradius 56.7016
lwrist -4.32168
lhand -19.7069 30.193
lfingers 7.12502
lthumb 6.62273 60.0695
rfemur -1.77297 3.97674 27.2681
rtibia 32.3913
rfoot -14.0227 -8.37276
rtoes -9.40196
lfemur -41.4694 -0.489368 -5.85174
ltibia 28.4338
lfoot -3.04926 2.72919
ltoes -4.23942
112
root 34.8347 17.0418 1.91556 136.426 -82.1152 -125.355
lowerback -1.46022 -0.175046 4.24886
upperback -2.29483 -0.277682 0.396685
thorax -1.55691 -0.217809 -1.97303
lowerneck -13.4034 -8.00237 -10.9249
upperneck 1.38603 -9.63966 10.7841
head 3.63032 -4.47196 4.32212
rclavicle 9.93923e-017 2.46493e-014
rhumerus -14.7903 20.8501 -88.2898
rradius 62.4267
rwrist 9.34183
rhand -16.8582 -24.5388
rfingers 7.12502
rthumb 9.37218 -54.3105
lclavicle 9.93923e-017 2.46493e-014
lhumerus -16.8643 -17.3491 92.9882
lradius 57.3012
lwrist -3.83926
lhand -19.5755 30.4483
lfingers 7.12502
lthumb 6.74962 60.3207
rfemur -2.28931 3.82108 26.8234
rtibia 33.9545
rfoot -13.0794 -8.34455
rtoes -9.24268
lfemur -41.1373 -0.570758 -6.3666
ltibia 28.9167
lfoot -3.14568 2.33228
ltoes -3.75126
113
root 34.6785 17.0497 1.94333 137.207 -82.2996 -126.288
lowerback -1.36035 -0.206862 4.05053
upperback -2.3059 -0.313764 0.317755
thorax -1.62552 -0.234257 -1.94256
lowerneck -13.2533 -7.97516 -10.9499
upperneck 1.20419 -9.6078 10.8371
head 3.55265 -4.46093 4.35274
rclavicle -1.49089e-015 -1.43125e-014
rhumerus -13.8469 21.2873 -87.9543
rradius 63.4724
rwrist 9.48523
rhand -17.1735 -24.5219
rfingers 7.12502
rthumb 9.06788 -54.307
lclavicle -1.49089e-015 -1.43125e-014
lhumerus -15.6268 -18.4086 92.9999
lradius 57.8938
lwrist -3.32474
lhand -19.4287 30.7048
lfingers 7.12502
lthumb 6.89136 60.5726
rfemur -2.86067 3.65419 26.3726
rtibia 35.5682
rfoot -12.0938 -8.34439
rtoes -9.00104
lfemur -40.7598 -0.661621 -6.895
ltibia 29.3735
lfoot -3.26079 1.9472
ltoes -3.2779
